<svg width="240" height="165" viewBox="0 0 240 165" fill="none" xmlns="http://www.w3.org/2000/svg">
<g clip-path="url(#clip0_1464_1477)">
<path fill-rule="evenodd" clip-rule="evenodd" d="M188.981 22.9917C184.514 18.1361 179.299 15.823 172.489 16.0424C167.913 16.7104 162.589 17.1092 157.743 17.3086C157.115 13.8987 155.709 9.84078 154.503 7.62736L151.213 4.02804C146.218 1.37592 139.767 -0.548365 132.578 0.129622C127.064 0.568319 121.102 2.53249 115.01 6.88955C113.046 6.1318 110.992 5.62331 109.018 4.86556C102.198 2.25332 94.3814 1.9542 86.6644 3.56941C74.65 5.62331 63.6826 12.3035 55.9256 22.902C46.045 35.7638 44.8186 56.8312 51.6384 71.4578C51.6384 71.4578 53.8119 76.0043 55.2078 78.5567C54.0712 81.7772 52.107 82.0563 52.107 82.0563L53.2336 84.2C53.2336 84.2 53.0243 84.4093 50.7012 84.6187C51.0202 86.7225 50.5915 88.1981 51.758 92.3059C49.754 92.7246 47.1218 93.3627 45.2274 95.0477C43.1037 96.9321 41.8475 101.947 42.5952 104.53C44.4896 111.06 48.7071 112.855 52.3961 114.33C58.9566 116.953 73.0448 116.544 85.1588 104.739C97.7913 111.25 108.699 114.879 123.176 115.258C145.619 115.258 165.53 109.136 181.533 93.3528C196.847 76.8119 206.12 51.537 194.853 30.0906C193.308 27.2591 191.304 24.8861 188.981 22.9718V22.9917ZM149.318 6.61038L152.459 10.0402C153.775 12.4431 154.792 15.0054 155.081 17.9168C141.85 18.4751 130.664 14.2178 120.205 7.48777C128.081 2.30317 140.923 2.16358 149.318 6.61038ZM178.651 91.6777C163.406 106.703 144.433 112.546 123.056 112.546C109.267 112.177 96.2559 107.491 84.2216 101.289C76.6341 109.026 65.2579 114.789 55.3573 111.748C51.08 110.432 46.0151 107.152 45.5864 102.187C45.367 99.6341 46.8227 96.7228 49.2056 95.4466C51.0302 94.4695 53.3433 94.7187 55.0682 95.3967C54.4799 92.4754 53.6125 89.3846 53.463 86.3237C55.2875 86.204 56.8629 87.1711 56.8629 87.1711L54.799 84.2498C54.799 84.2498 57.84 79.7532 58.3285 77.5597C56.9925 75.1269 54.9286 70.7998 54.9286 70.7998C48.4379 56.8612 49.6044 36.8007 59.0165 24.5471C70.7416 8.51472 90.2238 1.87444 109.118 7.41798C119.407 10.1897 128.231 16.6107 138.66 18.9437C148.291 21.8651 159.528 20.7683 169.449 19.3127C178.492 19.0235 186.887 23.251 191.334 31.4267C202.062 51.856 193.228 75.9245 178.641 91.6877L178.651 91.6777Z" fill="white"/>
<path fill-rule="evenodd" clip-rule="evenodd" d="M155.081 17.9268C154.792 15.0055 153.765 12.4531 152.459 10.0502L149.318 6.62041C140.933 2.17361 128.091 2.3132 120.205 7.4978C130.664 14.2378 141.85 18.4852 155.081 17.9268Z" fill="#E83428"/>
<path fill-rule="evenodd" clip-rule="evenodd" d="M169.448 19.3125C159.528 20.7682 148.291 21.865 138.66 18.9436C128.231 16.6106 119.397 10.1896 109.118 7.41786C90.2237 1.87432 70.7416 8.5146 58.9964 24.5669C49.5844 36.8205 48.4178 56.881 54.9086 70.8196C54.9086 70.8196 56.9724 75.1467 58.3085 77.5795C57.8199 79.773 54.779 84.2696 54.779 84.2696L56.8428 87.1909C56.8428 87.1909 55.2575 86.2138 53.4429 86.3435C53.5925 89.4044 54.4599 92.4952 55.0482 95.4165C53.3233 94.7385 51.0101 94.4893 49.1856 95.4664C46.7927 96.7426 45.347 99.6539 45.5663 102.206C46.005 107.172 51.06 110.452 55.3373 111.768C65.2379 114.809 76.6141 109.046 84.2016 101.309C96.2358 107.511 109.247 112.207 123.036 112.566C144.413 112.566 163.376 106.733 178.631 91.6976C193.218 75.9443 202.052 51.8659 191.323 31.4365C186.877 23.2608 178.482 19.0334 169.438 19.3225L169.448 19.3125ZM176.408 38.4557C170.715 41.8855 164.025 44.8068 157.893 47.9375L151.322 42.5535C161.811 39.5425 171.841 37.6281 176.398 38.4457L176.408 38.4557ZM85.6273 30.2002C88.1498 31.1075 98.9378 36.312 101.72 37.8575C97.522 39.682 95.518 41.9653 94.4212 41.8656L81.3401 29.8313C80.7917 29.2829 83.3441 29.3727 85.6273 30.2002ZM80.7917 32.613C84.73 35.7537 88.9575 40.0509 92.5069 43.4608C86.0361 48.6554 83.065 53.6306 80.0639 60.4703C78.9671 59.9718 78.4686 59.0545 77.7408 57.7783C75.3279 53.7702 76.2851 42.4139 80.7917 32.613ZM56.2446 109.186C53.1638 108.448 50.7011 107.331 49.0759 104.32C47.4906 101.399 48.4178 100.133 49.1457 99.0457C50.3122 97.7296 52.087 97.3209 53.6922 97.7596C56.783 98.637 56.8528 101.289 56.8528 101.289L59.4052 100.442C59.4052 100.442 57.2217 95.9449 56.7332 89.863C59.1659 90.9598 60.7412 90.7105 63.4432 93.1433C64.1013 92.4154 64.6796 91.6876 64.8989 90.8102C62.4861 88.9158 60.3723 86.8021 58.1888 84.6086C58.0692 83.5418 59.3554 81.448 60.0134 80.1319C67.0625 89.4941 70.1034 91.6776 81.4597 99.8533C77.7607 105.546 65.3575 111.379 56.2446 109.196V109.186ZM110.244 105.427C100.254 102.555 92.128 95.0476 89.2665 86.6825C88.6484 84.8579 85.757 75.8347 91.9984 69.2143C98.3496 69.4337 104.721 69.5334 111.012 69.9023C111.6 69.5334 112.288 69.4038 111.191 68.3569C107.772 67.3499 103.664 66.2631 101.251 65.0268C109.596 64.0696 119.307 68.307 125.14 73.372C132.03 68.975 142.738 69.0847 148.76 71.2782C141.741 72.8236 136.267 70.9093 138.55 73.6512C141.88 74.5186 150.465 76.3731 156.876 78.1179C159.219 83.2826 158.74 92.1761 147.603 100.791C141.162 105.776 126.217 110.023 110.234 105.427H110.244ZM94.0124 67.629C94.4212 66.9909 95.6576 66.2631 97.6118 65.7546C100.483 66.303 101.989 67.2103 104.681 68.0378C101.69 68.1076 98.0704 67.9481 94.0124 67.629ZM152.289 72.7837C153.157 73.0131 155.071 74.369 155.749 76.2036L144.303 73.3321C146.556 73.3321 150.006 72.7439 152.279 72.7837H152.289ZM160.814 93.1333C152.898 104.799 139.836 107.969 144.582 105.048C151.143 101.708 159.568 94.0007 160.126 84.0902C160.326 80.6404 159.628 80.6205 159.538 78.8457C160.904 78.8457 161.402 79.5736 162.728 79.4838C163.686 79.2545 163.506 78.2974 162.818 77.9384C161.951 77.4798 160.266 77.5895 158.81 76.9314C158.222 75.2863 156.716 73.6512 155.48 72.5046L161.452 72.0958C162.679 71.2782 162.18 70.6401 161.362 70.4507C157.773 70.8794 157.713 70.8196 153.476 70.999C149.368 68.3569 141.212 66.3528 131.77 68.4466C131.631 66.4426 130.414 64.9869 129.318 64.3787C126.975 63.0825 124.153 62.3148 120.564 64.2491C119.906 64.9769 119.108 65.5652 118.889 66.5124C112.976 64.1095 106.705 61.7665 99.7055 62.943L96.7044 63.7206L86.9933 60.4803C86.3552 60.3008 85.2186 61.3876 86.7241 62.0755C88.1499 62.6438 94.6904 64.5382 94.3813 64.7177C92.1879 66.0438 90.6923 67.4496 90.6923 67.4496C88.8577 67.9182 83.2644 66.4027 83.2943 68.1874C83.9423 69.6431 85.2684 68.4965 89.097 69.1844C83.6233 77.5296 86.3352 85.6655 88.1897 89.6536C91.3803 96.5432 95.2587 98.4575 94.8898 99.3249C94.3913 100.142 88.5487 94.3198 85.9065 90.6208C81.2503 84.1001 79.3161 75.8048 80.5225 67.6889C82.2773 54.1192 93.3843 42.5734 107.742 38.3061C126.257 32.8025 155.3 38.4258 163.735 62.265C168.292 75.1567 165.44 86.3435 160.814 93.1532V93.1333ZM167.554 66.5821C166.098 60.5999 163.466 55.6845 159.358 49.8518C164.832 46.7909 171.213 43.7799 177.046 41.0081C178.053 50.9486 175.77 61.4374 167.544 66.5821H167.554Z" fill="#E83428"/>
<path fill-rule="evenodd" clip-rule="evenodd" d="M94.4313 41.8756C95.528 41.9653 97.5321 39.6921 101.73 37.8675C98.9479 36.3221 88.1599 31.1175 85.6374 30.2102C83.3542 29.3927 80.8018 29.3029 81.3502 29.8413L94.4313 41.8756Z" fill="white"/>
<path fill-rule="evenodd" clip-rule="evenodd" d="M80.0638 60.4803C83.0748 53.6406 86.036 48.6754 92.5068 43.4708C88.9474 40.051 84.7299 35.7537 80.7916 32.623C76.275 42.4239 75.3179 53.7802 77.7407 57.7883C78.4685 59.0645 78.967 59.9818 80.0638 60.4803Z" fill="white"/>
<path fill-rule="evenodd" clip-rule="evenodd" d="M107.741 38.3063C93.3841 42.5736 82.2672 54.1193 80.5223 67.689C79.3059 75.8149 81.2502 84.1003 85.9063 90.6209C88.5485 94.3199 94.3911 100.153 94.8897 99.325C95.2586 98.4576 91.3801 96.5433 88.1896 89.6538C86.3351 85.6556 83.6331 77.5298 89.0969 69.1846C85.2682 68.4966 83.9422 69.6432 83.2941 68.1875C83.2642 66.4028 88.8576 67.9183 90.6921 67.4497C90.6921 67.4497 92.1977 66.0339 94.3812 64.7178C94.6903 64.5384 88.1497 62.644 86.7239 62.0757C85.2184 61.3877 86.355 60.3009 86.9931 60.4804L96.7043 63.7208L99.7054 62.9431C106.705 61.7766 112.986 64.1096 118.888 66.5125C119.108 65.5653 119.905 64.9771 120.563 64.2492C124.153 62.315 126.974 63.0827 129.317 64.3788C130.414 64.987 131.631 66.4427 131.77 68.4467C141.212 66.353 149.368 68.357 153.476 70.9992C157.713 70.8197 157.773 70.8795 161.362 70.4508C162.18 70.6303 162.688 71.2684 161.452 72.0959L155.48 72.5047C156.706 73.6413 158.212 75.2864 158.81 76.9316C160.266 77.5896 161.96 77.4799 162.818 77.9386C163.506 78.3075 163.685 79.2646 162.728 79.484C161.402 79.5737 160.904 78.8459 159.538 78.8459C159.627 80.6206 160.325 80.6405 160.126 84.0903C159.568 94.0009 151.143 101.708 144.582 105.048C139.836 107.969 152.897 104.799 160.814 93.1334C165.43 86.3237 168.292 75.1369 163.735 62.2452C155.3 38.406 126.257 32.7926 107.741 38.2863V38.3063ZM118.45 59.8024C116.476 61.7766 113.116 62.8234 110.473 61.4675C107.742 60.0716 106.396 57.9978 106.276 55.0266C106.196 53.1322 106.894 51.5469 108.28 50.1611C109.516 48.845 111.082 48.0374 112.777 47.9077C115.329 47.7283 118.609 49.4831 119.586 51.9158C121.022 55.5152 120.195 57.8283 118.44 59.7924L118.45 59.8024ZM121.949 43.3912C121.77 44.1489 121.461 44.3882 120.873 44.448C120.085 44.5677 118.888 41.5865 116.436 41.9554C112.667 42.2545 113.704 44.6873 111.879 43.3513C110.483 41.8956 115.279 38.8546 118.629 40.1907C120.823 41.0681 121.7 42.7431 121.959 43.3912C121.959 43.3812 121.959 43.3712 121.969 43.3513C121.989 43.431 121.999 43.5008 122.009 43.5407C121.999 43.5008 121.979 43.451 121.949 43.3812V43.3912ZM138.68 44.0193C141.232 42.9824 143.844 44.5677 144.762 45.8439C145.569 46.6515 146.646 47.9077 145.489 48.7054C143.545 49.4332 144.153 46.5119 141.292 45.7242C137.214 45.4251 137.762 48.7054 136.127 47.1201C135.399 46.2128 136.965 44.7172 138.68 44.0193ZM146.536 62.1355C145.081 64.6879 142.249 66.2732 139.348 65.9043C136.536 65.5553 135.419 64.2293 134.183 62.2551C132.947 59.9919 132.987 57.1503 134.482 55.0166C136.366 52.3446 139.158 51.5469 142.02 52.0953C143.904 52.4642 145.579 53.9997 146.457 55.6846C147.483 57.4394 147.553 60.3009 146.526 62.1255L146.536 62.1355Z" fill="white"/>
<path fill-rule="evenodd" clip-rule="evenodd" d="M176.418 38.4557C171.861 37.6382 161.831 39.5525 151.342 42.5635L157.913 47.9476C164.045 44.8069 170.735 41.8955 176.428 38.4657L176.418 38.4557Z" fill="white"/>
<path fill-rule="evenodd" clip-rule="evenodd" d="M118.629 40.1906C115.289 38.8546 110.483 41.8956 111.879 43.3513C113.704 44.6873 112.667 42.2545 116.436 41.9554C118.888 41.5865 120.085 44.5676 120.873 44.448C121.471 44.3882 121.77 44.1489 121.949 43.3911C121.69 42.7431 120.813 41.068 118.619 40.1906H118.629Z" fill="#E83428"/>
<path fill-rule="evenodd" clip-rule="evenodd" d="M121.959 43.3912C121.989 43.4511 121.999 43.5009 122.019 43.5508C122.009 43.5009 121.989 43.4411 121.979 43.3613C121.979 43.3813 121.979 43.3813 121.969 43.4012L121.959 43.3912Z" fill="#E83428"/>
<path fill-rule="evenodd" clip-rule="evenodd" d="M159.358 49.852C163.466 55.6847 166.098 60.6001 167.554 66.5824C175.77 61.4277 178.053 50.9488 177.056 41.0083C171.223 43.7801 164.832 46.7911 159.368 49.852H159.358Z" fill="white"/>
<path fill-rule="evenodd" clip-rule="evenodd" d="M141.302 45.7143C144.164 46.502 143.556 49.4233 145.5 48.6955C146.656 47.9078 145.58 46.6515 144.772 45.834C143.865 44.5578 141.242 42.9725 138.69 44.0094C136.975 44.7073 135.41 46.2029 136.138 47.1102C137.783 48.6955 137.234 45.4052 141.302 45.7143Z" fill="#E83428"/>
<path fill-rule="evenodd" clip-rule="evenodd" d="M112.787 47.9078C111.092 48.0274 109.526 48.845 108.29 50.1611C106.904 51.547 106.206 53.1322 106.286 55.0266C106.406 58.0078 107.742 60.0716 110.483 61.4675C113.126 62.8235 116.486 61.7666 118.46 59.8024C120.215 57.8283 121.042 55.5152 119.606 51.9258C118.629 49.4931 115.349 47.7283 112.797 47.9177L112.787 47.9078ZM117.832 57.3298C118.071 54.7175 116.316 53.3815 115.608 53.0824C114.073 52.4443 112.906 52.7135 111.889 53.4513C110.653 54.6178 109.447 56.6019 111.092 58.8453L112.248 59.8224C111.151 60.1913 109.038 58.5063 108.599 57.27C107.871 55.5152 107.951 53.2519 109.267 51.7962C110.942 49.5329 114.531 49.0544 117.233 51.4971C118.51 52.6537 118.749 56.0536 117.842 57.3298H117.832Z" fill="#E83428"/>
<path fill-rule="evenodd" clip-rule="evenodd" d="M109.267 51.7962C107.951 53.2518 107.871 55.5151 108.599 57.2699C109.038 58.5062 111.151 60.1912 112.248 59.8223L111.092 58.8452C109.447 56.5919 110.653 54.6178 111.889 53.4513C112.906 52.7234 114.073 52.4542 115.608 53.0823C116.316 53.3715 118.081 54.7075 117.832 57.3297C118.739 56.0535 118.5 52.6437 117.223 51.4971C114.531 49.0543 110.932 49.5429 109.257 51.7962H109.267Z" fill="white"/>
<path fill-rule="evenodd" clip-rule="evenodd" d="M142.03 52.1053C139.168 51.547 136.376 52.3446 134.492 55.0267C132.987 57.1603 132.947 60.0019 134.193 62.2652C135.429 64.2293 136.556 65.5554 139.358 65.9143C142.259 66.2832 145.081 64.6979 146.546 62.1455C147.563 60.3209 147.493 57.4495 146.476 55.7046C145.599 54.0296 143.924 52.4842 142.04 52.1153L142.03 52.1053ZM142.598 63.5912C141.721 63.8804 139.836 64.3191 138.929 63.7109C140.095 63.4217 141.641 62.8434 142.269 61.7666C143.057 60.4306 143.017 58.7755 141.721 57.27C140.993 56.4225 139.547 55.8043 138.071 56.1733C136.855 56.4724 135.818 57.6888 135.519 59.0348C134.911 57.8782 136.008 55.2659 137.643 54.5381C140.355 53.3317 142.448 53.7504 143.904 55.2061C145.22 56.3029 145.36 58.0876 145.36 59.7626C145.29 61.4376 144.044 62.7138 142.588 63.5912H142.598Z" fill="#E83428"/>
<path fill-rule="evenodd" clip-rule="evenodd" d="M137.653 54.538C136.008 55.2659 134.921 57.8781 135.529 59.0347C135.828 57.6986 136.865 56.4823 138.082 56.1732C139.557 55.8043 141.003 56.4125 141.731 57.2699C143.027 58.7754 143.067 60.4305 142.279 61.7666C141.641 62.8434 140.106 63.4217 138.939 63.7108C139.846 64.319 141.731 63.8803 142.608 63.5911C144.064 62.7137 145.31 61.4375 145.38 59.7625C145.38 58.0875 145.231 56.2928 143.924 55.206C142.469 53.7504 140.375 53.3316 137.663 54.538H137.653Z" fill="white"/>
<path fill-rule="evenodd" clip-rule="evenodd" d="M156.896 78.1179C150.475 76.3631 141.89 74.5186 138.57 73.6512C136.287 70.9193 141.761 72.8336 148.78 71.2782C142.758 69.0847 132.05 68.985 125.16 73.372C119.327 68.307 109.606 64.0696 101.271 65.0268C103.684 66.2531 107.792 67.3499 111.211 68.3569C112.308 69.4038 111.62 69.5434 111.032 69.9023C104.741 69.5334 98.3695 69.4337 92.0184 69.2143C85.767 75.8247 88.6584 84.8579 89.2865 86.6825C92.148 95.0476 100.274 102.545 110.264 105.427C126.247 110.023 141.192 105.776 147.633 100.791C158.77 92.1761 159.249 83.2826 156.906 78.1179H156.896ZM117.433 100.063C104.372 96.1244 103.863 80.2217 98.2499 70.9492C105.907 78.3871 119.477 72.1855 128.45 76.7121C135.449 79.8527 144.503 82.3254 151.143 78.5367C144.941 84.5887 139.767 91.3087 133.854 97.5801C129.766 101.887 122.618 101.738 117.443 100.063H117.433Z" fill="white"/>
<path fill-rule="evenodd" clip-rule="evenodd" d="M97.6218 65.7646C95.6576 66.2632 94.4312 66.991 94.0225 67.6391C98.0804 67.9581 101.7 68.1177 104.691 68.0479C101.999 67.2303 100.493 66.313 97.6218 65.7646Z" fill="white"/>
<path fill-rule="evenodd" clip-rule="evenodd" d="M128.45 76.7221C119.477 72.1956 105.907 78.3971 98.25 70.9592C103.863 80.2217 104.382 96.1245 117.433 100.073C122.618 101.748 129.766 101.897 133.844 97.5901C139.757 91.3188 144.931 84.5987 151.133 78.5467C144.493 82.3454 135.45 79.8628 128.44 76.7221H128.45ZM132.369 95.9949C129.088 98.9162 126.067 98.8664 120.973 98.3678C116.316 97.9092 112.697 95.5462 111.092 93.5023C111.212 91.7973 112.657 90.1921 114.133 89.3347C117.603 87.3306 123.704 86.7822 129.637 89.883C132.279 91.7076 133.376 95.1673 132.369 95.9949Z" fill="#E83428"/>
<path fill-rule="evenodd" clip-rule="evenodd" d="M152.289 72.784C150.006 72.7341 146.556 73.3323 144.313 73.3323L155.759 76.2038C155.081 74.3693 153.157 73.0133 152.299 72.784H152.289Z" fill="white"/>
<path fill-rule="evenodd" clip-rule="evenodd" d="M60.0233 80.132C59.3652 81.4481 58.0791 83.5419 58.1987 84.6087C60.3822 86.8022 62.5059 88.916 64.9088 90.8103C64.6894 91.6877 64.1012 92.4156 63.4531 93.1434C60.7511 90.7106 59.1758 90.9499 56.743 89.8631C57.2316 95.9451 59.4151 100.442 59.4151 100.442L56.8627 101.289C56.8627 101.289 56.7929 98.6371 53.7021 97.7597C52.0968 97.321 50.3221 97.7397 49.1556 99.0459C48.4277 100.143 47.5005 101.409 49.0858 104.32C50.7109 107.321 53.1836 108.448 56.2545 109.186C65.3774 111.369 77.7805 105.537 81.4696 99.8435C70.1133 91.6678 67.0723 89.4843 60.0233 80.1221V80.132Z" fill="white"/>
<path fill-rule="evenodd" clip-rule="evenodd" d="M129.626 89.8831C123.694 86.7823 117.592 87.3307 114.123 89.3347C112.647 90.1922 111.201 91.7974 111.082 93.5023C112.687 95.5463 116.306 97.9093 120.962 98.3679C126.057 98.8664 129.078 98.9163 132.358 95.9949C133.365 95.1774 132.269 91.7077 129.626 89.8831Z" fill="white"/>
<path fill-rule="evenodd" clip-rule="evenodd" d="M235.582 140.562L229.021 127.192L223.278 127.242L223.229 147.073L227.825 147.113V134.072L234.465 147.113L239.869 147.073L239.889 127.112L235.562 127.073L235.582 140.562Z" fill="white"/>
<path fill-rule="evenodd" clip-rule="evenodd" d="M173.167 130.572H178.203L178.173 147.442L183.307 147.472V130.572L188.332 130.562L188.352 127.362H173.167V130.572Z" fill="white"/>
<path fill-rule="evenodd" clip-rule="evenodd" d="M191.513 147.263L196.657 147.283V127.242H191.553L191.513 147.263Z" fill="white"/>
<path fill-rule="evenodd" clip-rule="evenodd" d="M107.233 140.872L100.473 127.432H94.8799V147.592L99.217 147.572L99.2469 134.212L106.007 147.592L111.62 147.572L111.67 127.302L107.193 127.252L107.233 140.872Z" fill="white"/>
<path fill-rule="evenodd" clip-rule="evenodd" d="M117.263 147.103L122.428 147.093V127.432H117.263V147.103Z" fill="white"/>
<path fill-rule="evenodd" clip-rule="evenodd" d="M143.396 127.492L139.488 140.862L136.018 127.621L128.321 127.571L128.331 147.343H132.698V131.948L137.683 147.223H141.432L146.287 131.579L146.268 147.382L150.964 147.472L150.944 127.442L143.396 127.492Z" fill="white"/>
<path fill-rule="evenodd" clip-rule="evenodd" d="M51.9874 144.391L44.4498 144.451V138.858H51.0302L50.9903 135.667L44.3899 135.717V130.881L51.4889 130.871L51.5188 127.551L39.644 127.571L39.654 147.592H52.0173L51.9874 144.391Z" fill="white"/>
<path fill-rule="evenodd" clip-rule="evenodd" d="M56.4438 147.721L61.6484 147.691L61.6683 127.551H56.4438V147.721Z" fill="white"/>
<path fill-rule="evenodd" clip-rule="evenodd" d="M5.21617 147.662H10.321L10.3011 130.931H15.3461L15.366 127.432H0.111328V131.131L5.18626 131.121L5.21617 147.662Z" fill="white"/>
<path fill-rule="evenodd" clip-rule="evenodd" d="M210.487 126.674C203.478 126.803 200.706 131.699 200.766 137.671C200.835 144.082 202.919 147.661 209.809 147.602C216.818 147.542 218.852 143.265 219.031 137.422C219.191 132.307 217.306 126.554 210.487 126.684V126.674ZM209.869 145.019C206.489 144.89 206.359 143.324 206.239 136.724C206.18 132.008 207.097 129.436 210.108 129.436C213.428 129.436 213.558 132.516 213.737 136.854C213.368 142.886 212.939 144.83 209.859 145.019H209.869Z" fill="white"/>
<path fill-rule="evenodd" clip-rule="evenodd" d="M26.5526 127.112C18.4367 127.023 17.1904 132.327 17.1406 137.292C17.0807 144.581 18.9253 148.23 26.1239 148.29C33.9307 148.349 34.9277 142.437 35.2268 137.92C35.6556 131.32 32.2756 127.182 26.5526 127.112ZM26.3632 145.398C22.5545 145.398 22.3052 142.886 22.365 138.429C22.4348 133.673 22.5545 129.934 26.2435 130.014C29.1948 130.074 29.8727 132.397 29.8727 136.923C29.5637 141.889 30.0622 145.657 26.3632 145.408V145.398Z" fill="white"/>
<path fill-rule="evenodd" clip-rule="evenodd" d="M160.435 127.362L153.795 147.532L158.65 147.472L160.924 140.872H166.029L167.993 147.402H172.908L167.375 127.362H160.425H160.435ZM161.602 137.791L163.506 131.19L165.41 137.791H161.602Z" fill="white"/>
<path fill-rule="evenodd" clip-rule="evenodd" d="M79.2562 127.551L72.8452 147.672L77.5911 147.652L79.6251 140.991H85.0988L86.9433 147.592H92.0482L86.3252 127.551H79.2562ZM80.4825 137.851L82.5165 131.19L84.1417 137.841H80.4925L80.4825 137.851Z" fill="white"/>
<path fill-rule="evenodd" clip-rule="evenodd" d="M94.6807 155.339C94.8202 155.807 95.0197 155.967 95.4783 155.967C96.0765 155.837 96.7944 155.339 96.7146 154.74C96.1862 153.684 94.7604 154.541 94.6807 155.339Z" fill="white"/>
<path fill-rule="evenodd" clip-rule="evenodd" d="M91.2407 155.059C89.6455 154.023 88.1898 154.292 87.2426 154.521C86.6145 154.671 85.7371 154.98 85.079 156.096C82.8157 159.935 90.2636 159.606 88.6085 163.375C88.1599 164.302 86.7241 164.491 85.6473 164.282C84.1518 163.993 84.0022 161.351 83.5336 161.64C82.9653 161.929 83.8626 163.375 83.3442 163.993C84.1418 164.82 85.6473 165.03 86.4051 164.99C88.3792 164.88 90.2636 163.634 90.5927 162.547C91.7193 158.828 85.9564 159.307 86.4848 156.196C86.8637 155.269 87.6713 154.84 88.798 154.98C89.9246 155.179 90.3534 155.678 90.6226 157.123C91.809 157.004 90.9217 155.927 91.2507 155.059H91.2407Z" fill="white"/>
<path fill-rule="evenodd" clip-rule="evenodd" d="M129.836 155.937C130.135 156.266 130.893 155.807 131.192 156.266L129.537 164.003L127.882 164.601C129.387 164.86 131.042 164.731 132.628 164.731C132.777 164.132 131.72 164.471 131.421 164.003L133.226 155.199C132.249 155.069 130.743 155.269 129.836 155.927V155.937Z" fill="white"/>
<path fill-rule="evenodd" clip-rule="evenodd" d="M147.215 154.85C146.457 156.396 145.898 157.732 145.52 159.317L148.202 159.367C149.179 159.566 149.787 160.424 149.707 161.281C149.707 162.278 149.408 163.335 148.351 163.923C147.075 164.382 145.719 163.724 144.582 163.325C144.283 163.524 144.054 163.784 144.134 164.123C144.662 164.781 145.41 164.85 146.168 164.98C148.122 164.781 149.857 163.853 151.063 162.468C151.592 161.341 151.97 159.885 150.684 159.028C149.558 157.971 147.902 158.499 146.616 158.569C146.217 157.084 147.394 156.276 147.394 156.276C147.394 156.276 152.1 156.774 152.22 154.95C150.794 154.75 148.71 154.84 147.205 154.84L147.215 154.85Z" fill="white"/>
<path fill-rule="evenodd" clip-rule="evenodd" d="M138.5 155.209C137.144 155.937 136.018 157.123 136.018 158.579C136.167 159.437 136.616 160.583 137.673 160.832C139.677 161.291 139.916 160.344 140.824 160.483C140.076 162.667 137.294 164.083 135.34 164.87C138.052 165 140.385 163.544 142.11 161.63C143.087 160.174 143.765 158.32 143.087 156.535C142.259 155.01 140.076 154.421 138.49 155.209H138.5ZM139.946 159.925C138.889 159.865 138.201 159.636 138.052 158.649C137.902 157.462 138.301 155.937 139.507 155.409C140.415 155.209 141.222 155.748 141.362 156.535C141.761 158.719 141.761 160.045 139.946 159.935V159.925Z" fill="white"/>
<path fill-rule="evenodd" clip-rule="evenodd" d="M109.357 159.566C108.38 160.693 107.831 162.019 108.13 163.534C108.28 164.392 109.666 165.01 110.344 164.86C111.57 164.581 112.747 163.993 113.684 163.126C112.976 163.126 112.268 164.492 110.194 163.544C109.686 163.205 110.164 158.779 111.849 158.529C113.215 158.41 112.836 159.526 113.734 159.397C113.963 159.127 114.661 158.848 114.442 158.449C113.175 156.715 110.563 158.37 109.357 159.566Z" fill="white"/>
<path fill-rule="evenodd" clip-rule="evenodd" d="M94.9595 162.916L96.0363 159.377C97.1729 156.306 93.2147 158.659 92.7461 159.526C93.3443 159.596 93.6933 158.779 94.3015 159.237C94.5806 160.144 91.8986 164.99 93.3643 164.94C94.3513 164.821 96.1859 163.654 96.4252 163.116C95.7173 163.445 94.6405 164.232 94.9695 162.906L94.9595 162.916Z" fill="white"/>
<path fill-rule="evenodd" clip-rule="evenodd" d="M105.08 163.455C105.08 161.54 106.964 158.739 105.688 157.702C103.474 157.821 102.677 159.437 101.311 160.144C101.032 159.686 101.879 158.529 101.401 157.951C100.982 157.413 98.7784 158.818 98.25 159.486C98.7685 159.945 99.2869 158.489 99.7555 159.237L98.2999 164.781C98.8981 164.781 99.4265 164.9 100.184 164.412C100.753 161.47 100.653 160.982 102.816 159.516C103.245 159.227 103.873 158.589 104.322 159.117C104.242 161.102 102.248 164.781 103.415 164.87C104.392 164.801 105.678 164.272 106.346 163.415C105.778 163.544 105.598 163.853 105.07 163.455H105.08Z" fill="white"/>
<path fill-rule="evenodd" clip-rule="evenodd" d="M122.059 158.908C121.87 157.542 119.477 157.502 118.061 158.33C116.216 159.406 115.189 161.261 115.568 163.375C115.947 164.172 116.555 164.81 117.921 164.91C119.148 164.99 121.73 163.425 121.351 162.846C120.833 163.594 119.237 164.043 118.25 163.793C116.934 163.464 117.453 161.73 117.453 161.73C117.453 161.73 122.019 160.782 122.059 158.918V158.908ZM120.224 158.579C120.932 160.154 118.679 161.131 117.403 161.271C117.313 160.364 118.629 157.672 120.224 158.579Z" fill="white"/>
<path fill-rule="evenodd" clip-rule="evenodd" d="M161.761 154.87C159.877 154.94 158.301 155.528 156.796 156.396C154.383 158.051 152.957 160.563 153.785 163.215C154.533 164.671 156.347 165.199 158.002 164.741C159.358 164.412 160.335 163.156 160.864 162.158C161.163 161.161 160.944 160.105 160.036 159.377C159.129 158.19 157.324 158.918 156.267 159.048C156.796 156.595 159.956 155.807 161.761 154.88V154.87ZM158.979 160.693C159.229 162.069 158.979 163.674 157.474 164.262C156.497 164.462 155.899 163.863 155.589 163.205C155.589 161.949 154.882 160.294 155.938 159.696C156.995 159.626 158.7 159.197 158.979 160.693Z" fill="white"/>
</g>
<defs>
<clipPath id="clip0_1464_1477">
<rect width="239.778" height="165" fill="white" transform="translate(0.111328)"/>
</clipPath>
</defs>
</svg>
